<?xml version="1.0" standalone="no"?>
<!DOCTYPE svg PUBLIC "-//W3C//DTD SVG 20010904//EN"
 "http://www.w3.org/TR/2001/REC-SVG-20010904/DTD/svg10.dtd">
<svg version="1.0" xmlns="http://www.w3.org/2000/svg"
 width="1200.000000pt" height="1200.000000pt" viewBox="0 0 1200.000000 1200.000000"
 preserveAspectRatio="xMidYMid meet">

<g transform="translate(0.000000,1200.000000) scale(0.100000,-0.100000)"
fill="#000000" stroke="none">
<path d="M6075 9359 c-95 -12 -232 -52 -320 -93 -240 -111 -445 -323 -548
-566 -66 -155 -79 -229 -84 -472 -5 -199 -7 -218 -23 -218 -32 0 -287 79 -404
125 -65 26 -119 45 -121 43 -2 -2 -26 -128 -54 -281 l-50 -277 -242 -262
c-179 -195 -247 -262 -261 -260 -34 6 -68 -25 -68 -61 0 -42 15 -57 57 -57 38
0 69 37 60 71 -5 18 37 68 215 261 121 131 222 237 223 236 2 -2 -23 -149 -55
-328 -32 -179 -156 -869 -275 -1534 -119 -664 -215 -1212 -213 -1215 2 -4 75
3 163 15 88 13 198 28 245 34 47 6 128 17 180 25 52 9 307 45 565 81 466 64
597 83 1327 185 207 29 376 55 374 56 -2 2 -113 -3 -247 -12 -227 -14 -581
-34 -1214 -70 -143 -8 -332 -19 -420 -25 -88 -5 -205 -12 -260 -15 -55 -3
-165 -10 -245 -15 -80 -5 -146 -8 -147 -6 -2 2 23 118 186 861 137 627 364
1661 425 1938 30 137 57 251 59 253 3 3 40 -4 83 -14 44 -11 91 -23 107 -26
l27 -6 0 -117 c0 -104 -2 -119 -21 -139 -11 -12 -23 -40 -26 -63 -14 -106 82
-176 180 -133 83 37 102 140 38 206 l-31 32 0 419 c0 234 5 449 10 485 58 371
340 680 708 777 123 32 325 36 437 9 304 -73 535 -261 666 -541 65 -138 80
-220 86 -457 3 -127 2 -208 -4 -208 -5 0 -81 -11 -169 -25 -344 -54 -534 -69
-899 -70 -332 0 -468 8 -667 40 l-77 12 -6 -28 c-4 -15 -5 -75 -4 -133 3 -122
-17 -106 166 -131 316 -42 827 -58 1134 -35 115 9 341 35 487 56 l42 7 0 -91
c0 -85 -2 -93 -23 -107 -75 -49 -56 -185 30 -221 99 -42 207 57 174 159 -7 19
-19 41 -27 47 -12 11 -14 77 -14 424 0 238 -5 449 -11 501 -56 457 -402 838
-847 935 -106 23 -282 32 -377 19z"/>
<path d="M7805 8158 c-52 -17 -314 -86 -385 -102 l-25 -5 -3 -149 c-2 -82 0
-152 5 -154 4 -3 43 4 86 14 43 11 80 18 82 16 1 -1 -1 -46 -5 -98 -5 -52 -11
-142 -14 -200 -3 -58 -19 -314 -36 -570 -16 -256 -45 -719 -65 -1030 -19 -311
-46 -734 -59 -940 -13 -206 -22 -377 -21 -378 2 -2 65 19 141 47 75 28 146 51
158 51 11 0 50 -10 86 -21 89 -28 701 -214 825 -250 55 -16 105 -31 111 -34 7
-2 10 4 8 13 -2 9 -58 276 -125 592 -183 874 -198 946 -224 1070 -23 114 -140
668 -341 1621 -57 273 -104 504 -104 513 0 20 -19 19 -95 -6z"/>
<path d="M3632 7126 c-76 -83 -180 -196 -230 -250 -51 -55 -92 -105 -91 -110
1 -9 236 -229 389 -363 l48 -43 103 113 c56 61 151 165 211 229 60 64 119 129
130 144 l22 27 -45 129 c-24 70 -47 128 -50 128 -19 0 -62 -63 -66 -97 -6 -51
-50 -93 -99 -93 -49 0 -94 45 -94 94 0 45 43 95 83 98 16 2 41 17 63 39 l37
38 -39 10 c-22 5 -83 21 -136 34 l-98 25 -138 -152z"/>
<path d="M6449 7003 c-92 -47 -149 -158 -149 -293 0 -229 170 -377 326 -285
128 75 174 299 95 459 -37 75 -85 120 -147 135 -59 15 -63 15 -125 -16z m21
-165 c65 -70 30 -228 -50 -228 -25 0 -68 54 -76 95 -20 109 65 198 126 133z"/>
<path d="M5575 6935 c-82 -42 -138 -153 -137 -275 0 -116 44 -198 117 -216 61
-15 139 42 184 136 22 47 26 68 26 150 0 79 -4 102 -23 137 -37 71 -107 99
-167 68z m-19 -140 c33 -50 14 -135 -31 -135 -51 0 -76 99 -35 140 27 27 46
25 66 -5z"/>
<path d="M5072 6035 c-38 -17 -66 -71 -56 -110 13 -53 206 -206 354 -280 437
-220 972 -156 1362 162 40 33 71 66 77 85 22 63 -22 128 -87 128 -30 0 -45 -9
-157 -97 -126 -99 -308 -176 -477 -203 -108 -18 -311 -8 -413 18 -169 44 -313
120 -452 238 -41 35 -79 64 -83 64 -5 0 -14 2 -22 5 -7 2 -28 -2 -46 -10z"/>
<path d="M4626 3253 c-37 -197 -70 -368 -73 -380 -5 -22 -3 -23 70 -23 63 0
76 3 81 18 2 9 19 91 36 182 17 91 48 254 69 363 l38 197 -77 0 -76 0 -68
-357z"/>
<path d="M7160 3603 c0 -5 -32 -174 -70 -378 -39 -203 -70 -371 -70 -372 0 -2
33 -3 74 -3 l75 0 10 53 c5 28 17 90 27 137 22 113 39 154 80 190 61 53 114
35 114 -38 0 -25 -39 -251 -55 -319 -5 -22 -3 -23 69 -23 62 0 76 3 80 18 8
27 55 282 62 338 8 66 -8 116 -49 150 -28 23 -37 26 -94 22 -51 -3 -71 -10
-108 -36 -25 -17 -45 -26 -45 -19 0 6 11 70 25 142 14 71 25 133 25 137 0 4
-34 8 -75 8 -41 0 -75 -3 -75 -7z"/>
<path d="M4985 3575 c-48 -47 -22 -135 40 -135 80 0 126 88 72 138 -32 30 -81
29 -112 -3z"/>
<path d="M3483 3560 c-167 -59 -263 -212 -263 -419 0 -136 57 -236 162 -281
45 -19 65 -22 147 -18 80 4 105 9 149 32 146 75 222 216 222 410 0 99 -22 159
-80 217 -34 34 -63 52 -101 63 -69 21 -171 19 -236 -4z m198 -131 c73 -52 78
-223 11 -355 -58 -114 -193 -148 -269 -68 -38 41 -47 80 -41 180 8 126 78 237
165 264 38 12 102 2 134 -21z"/>
<path d="M6730 3571 c-133 -41 -211 -155 -180 -266 15 -54 54 -95 142 -147 77
-45 98 -69 98 -110 0 -80 -127 -107 -254 -54 l-35 15 -21 -56 c-12 -31 -19
-61 -16 -68 13 -36 219 -59 306 -35 116 32 186 127 178 241 -6 76 -23 100
-127 169 -86 58 -121 91 -121 117 0 8 13 28 29 44 26 26 36 29 88 29 32 -1 75
-7 96 -14 37 -14 38 -14 48 12 5 15 14 39 20 54 16 40 7 54 -45 67 -50 12
-167 13 -206 2z"/>
<path d="M4264 3366 c-17 -8 -48 -29 -69 -47 l-37 -33 7 42 7 42 -70 0 -69 0
-7 -55 c-5 -47 -66 -377 -81 -443 -6 -22 -4 -23 72 -20 l77 3 28 145 c29 149
56 213 100 245 27 18 69 20 86 3 19 -19 14 -102 -17 -255 l-28 -143 77 0 76 0
32 173 c18 94 32 191 32 215 0 59 -23 108 -59 126 -36 19 -115 20 -157 2z"/>
<path d="M5444 3366 c-17 -8 -48 -29 -69 -47 l-37 -33 7 42 7 42 -71 0 c-68 0
-71 -1 -71 -24 0 -22 -71 -412 -86 -470 l-6 -27 78 3 79 3 27 143 c28 148 55
215 100 247 27 18 69 20 86 3 19 -19 13 -101 -17 -255 l-28 -143 77 0 76 0 32
173 c18 94 32 191 32 215 0 59 -23 108 -59 126 -36 19 -115 20 -157 2z"/>
<path d="M5940 3363 c-64 -23 -141 -104 -170 -178 -42 -111 -26 -240 37 -297
53 -49 196 -64 301 -33 l52 16 0 54 c0 30 -2 55 -4 55 -2 0 -32 -7 -67 -16
-94 -24 -160 -9 -187 43 -20 37 -15 43 42 43 116 0 223 36 260 87 28 38 32
119 9 162 -38 73 -163 102 -273 64z m140 -113 c25 -47 -15 -78 -112 -87 -64
-6 -68 -2 -43 47 29 57 132 83 155 40z"/>
<path d="M7870 3371 c-118 -36 -196 -128 -219 -257 -30 -163 55 -274 210 -274
79 0 124 12 177 48 87 58 134 153 135 272 1 105 -37 168 -125 204 -39 17 -135
20 -178 7z m103 -112 c98 -45 26 -309 -84 -309 -21 0 -40 10 -61 31 -29 29
-30 33 -26 92 9 105 68 195 130 197 9 0 28 -5 41 -11z"/>
<path d="M8383 3373 c-61 -4 -62 -4 -68 -36 -14 -91 -69 -391 -95 -527 -16
-85 -30 -161 -30 -167 0 -9 21 -13 73 -13 l74 0 12 68 c29 156 31 163 51 152
32 -17 151 -11 197 9 55 26 116 90 150 159 24 50 27 69 28 159 0 113 -10 136
-75 181 -59 39 -173 21 -224 -37 -27 -30 -32 -27 -28 19 2 22 3 39 1 38 -2 -1
-32 -3 -66 -5z m220 -131 c27 -29 30 -74 11 -142 -22 -81 -83 -150 -132 -150
-49 0 -82 19 -77 44 2 12 9 47 16 79 15 80 33 119 69 156 37 36 87 42 113 13z"/>
<path d="M4887 3118 c-26 -139 -48 -256 -47 -260 0 -12 150 -10 150 1 0 5 20
115 45 243 25 128 45 241 45 251 0 15 -10 17 -73 17 l-73 0 -47 -252z"/>
</g>
</svg>
